<svg width="48" height="46" viewBox="0 0 48 46" fill="none" xmlns="http://www.w3.org/2000/svg">
<path d="M24.218 12.5778C24.4061 12.4084 24.6857 12.5668 24.6857 12.8346V24.0088C24.6857 25.4568 23.6491 26.6316 22.3714 26.6316H2.31429C1.03661 26.6316 0 25.4568 0 24.0088V12.84C0 12.5668 0.274821 12.4138 0.467678 12.5832C1.54768 13.534 2.97964 14.7416 7.8975 18.7905C8.91482 19.632 10.6312 21.4024 12.3429 21.3915C14.0641 21.4079 15.8143 19.5992 16.793 18.7905C21.7109 14.7416 23.138 13.5285 24.218 12.5778ZM12.3429 19.6375C13.4614 19.6593 15.0718 18.0419 15.8818 17.3753C22.2798 12.1133 22.7668 11.6543 24.2421 10.3429C24.5218 10.097 24.6857 9.71452 24.6857 9.31017V8.27198C24.6857 6.82397 23.6491 5.64917 22.3714 5.64917H2.31429C1.03661 5.64917 0 6.82397 0 8.27198V9.31017C0 9.71452 0.163929 10.0915 0.443571 10.3429C1.91893 11.6488 2.40589 12.1133 8.80393 17.3753C9.61393 18.0419 11.2243 19.6593 12.3429 19.6375Z" fill="#777777"/>
</svg>
