<svg width="23" height="25" viewBox="0 0 23 25" fill="none" xmlns="http://www.w3.org/2000/svg">
<g clip-path="url(#clip0)">
<path d="M19.326 15.993H17.951C17.7687 15.993 17.5938 16.0721 17.4649 16.2127C17.336 16.3534 17.2635 16.5441 17.2635 16.743V21.993H3.51355V6.99304H9.70105C9.88339 6.99304 10.0583 6.91402 10.1872 6.77337C10.3161 6.63272 10.3885 6.44195 10.3885 6.24304V4.74304C10.3885 4.54413 10.3161 4.35336 10.1872 4.21271C10.0583 4.07206 9.88339 3.99304 9.70105 3.99304H2.82605C2.27904 3.99304 1.75444 4.23009 1.36764 4.65205C0.980848 5.07401 0.76355 5.6463 0.76355 6.24304L0.76355 22.743C0.76355 23.3398 0.980848 23.9121 1.36764 24.334C1.75444 24.756 2.27904 24.993 2.82605 24.993H17.951C18.4981 24.993 19.0227 24.756 19.4095 24.334C19.7963 23.9121 20.0135 23.3398 20.0135 22.743V16.743C20.0135 16.5441 19.9411 16.3534 19.8122 16.2127C19.6833 16.0721 19.5084 15.993 19.326 15.993ZM21.7323 0.993042H16.2323C15.3141 0.993042 14.8552 2.20757 15.5018 2.91492L17.0371 4.58976L6.56433 16.0104C6.46819 16.1149 6.39191 16.2391 6.33986 16.3758C6.28781 16.5126 6.26102 16.6592 6.26102 16.8073C6.26102 16.9553 6.28781 17.1019 6.33986 17.2387C6.39191 17.3754 6.46819 17.4996 6.56433 17.6041L7.53843 18.6649C7.63424 18.7698 7.74808 18.853 7.87343 18.9098C7.99878 18.9666 8.13317 18.9958 8.2689 18.9958C8.40463 18.9958 8.53902 18.9666 8.66437 18.9098C8.78972 18.853 8.90356 18.7698 8.99937 18.6649L19.467 7.24242L21.0018 8.91492C21.6464 9.61804 22.7635 9.12585 22.7635 8.11804V2.11804C22.7635 1.81967 22.6549 1.53353 22.4615 1.32255C22.2681 1.11157 22.0058 0.993042 21.7323 0.993042V0.993042Z" fill="black"/>
</g>
<defs>
<clipPath id="clip0">
<rect width="22" height="24" fill="white" transform="translate(0.76355 0.993042)"/>
</clipPath>
</defs>
</svg>
