<svg width="71" height="66" viewBox="0 0 71 66" fill="none" xmlns="http://www.w3.org/2000/svg">
<path d="M51.2161 22.0043C55.4014 22.0043 59.4153 20.8451 62.3748 18.7818C65.3343 16.7185 66.9969 13.9201 66.9969 11.0021C66.9969 8.0842 65.3343 5.28576 62.3748 3.22245C59.4153 1.15915 55.4014 0 51.2161 0L19.6544 0C15.4715 0 11.4599 1.15847 8.50218 3.22057C5.54443 5.28266 3.88278 8.07946 3.88278 10.9957C3.88278 13.9119 5.54443 16.7087 8.50218 18.7708C11.4599 20.8329 15.4715 21.9914 19.6544 21.9914C15.469 21.9914 11.4551 23.1506 8.49564 25.2139C5.53616 27.2772 3.87354 30.0756 3.87354 32.9936C3.87354 35.9115 5.53616 38.7099 8.49564 40.7733C11.4551 42.8366 15.469 43.9957 19.6544 43.9957C16.5332 43.9944 13.4816 44.6384 10.8855 45.8463C8.2893 47.0542 6.26518 48.7717 5.06908 50.7816C3.87298 52.7914 3.55861 55.0035 4.16572 57.1379C4.77283 59.2724 6.27417 61.2334 8.47986 62.773C10.6856 64.3126 13.4966 65.3616 16.5574 65.7873C19.6182 66.2131 22.7914 65.9965 25.6757 65.165C28.5599 64.3334 31.0258 62.9243 32.7613 61.1157C34.4968 59.3071 35.4242 57.1803 35.426 55.0043V22.0043H51.2161ZM51.2161 22.0043C48.0968 22.0043 45.0475 22.6492 42.4538 23.8574C39.8602 25.0656 37.8387 26.7829 36.645 28.7921C35.4513 30.8013 35.139 33.0122 35.7475 35.1452C36.3561 37.2781 37.8582 39.2374 40.0639 40.7751C42.2696 42.3129 45.0798 43.3602 48.1392 43.7844C51.1986 44.2087 54.3697 43.9909 57.2516 43.1587C60.1335 42.3265 62.5967 40.9171 64.3297 39.1089C66.0627 37.3007 66.9877 35.1747 66.9877 33C66.9872 30.0839 65.3254 27.2873 62.3677 25.2252C59.4101 23.1632 55.3988 22.0046 51.2161 22.0043Z" fill="#3CECB4"/>
</svg>
