<svg width="25" height="26" viewBox="0 0 25 26" fill="none" xmlns="http://www.w3.org/2000/svg">
<g clip-path="url(#clip0)">
<path d="M8.295 19.87C8.295 19.97 8.18 20.05 8.035 20.05C7.87 20.065 7.755 19.985 7.755 19.87C7.755 19.77 7.87 19.69 8.015 19.69C8.165 19.675 8.295 19.755 8.295 19.87ZM6.74 19.645C6.705 19.745 6.805 19.86 6.955 19.89C7.085 19.94 7.235 19.89 7.265 19.79C7.295 19.69 7.2 19.575 7.05 19.53C6.92 19.495 6.775 19.545 6.74 19.645ZM8.95 19.56C8.805 19.595 8.705 19.69 8.72 19.805C8.735 19.905 8.865 19.97 9.015 19.935C9.16 19.9 9.26 19.805 9.245 19.705C9.23 19.61 9.095 19.545 8.95 19.56ZM12.24 0.399994C5.305 0.399994 0 5.66499 0 12.6C0 18.145 3.49 22.89 8.475 24.56C9.115 24.675 9.34 24.28 9.34 23.955C9.34 23.645 9.325 21.935 9.325 20.885C9.325 20.885 5.825 21.635 5.09 19.395C5.09 19.395 4.52 17.94 3.7 17.565C3.7 17.565 2.555 16.78 3.78 16.795C3.78 16.795 5.025 16.895 5.71 18.085C6.805 20.015 8.64 19.46 9.355 19.13C9.47 18.33 9.795 17.775 10.155 17.445C7.36 17.135 4.54 16.73 4.54 11.92C4.54 10.545 4.92 9.85499 5.72 8.97499C5.59 8.64999 5.165 7.30999 5.85 5.57999C6.895 5.25499 9.3 6.92999 9.3 6.92999C10.3 6.64999 11.375 6.50499 12.44 6.50499C13.505 6.50499 14.58 6.64999 15.58 6.92999C15.58 6.92999 17.985 5.24999 19.03 5.57999C19.715 7.31499 19.29 8.64999 19.16 8.97499C19.96 9.85999 20.45 10.55 20.45 11.92C20.45 16.745 17.505 17.13 14.71 17.445C15.17 17.84 15.56 18.59 15.56 19.765C15.56 21.45 15.545 23.535 15.545 23.945C15.545 24.27 15.775 24.665 16.41 24.55C21.41 22.89 24.8 18.145 24.8 12.6C24.8 5.66499 19.175 0.399994 12.24 0.399994ZM4.86 17.645C4.795 17.695 4.81 17.81 4.895 17.905C4.975 17.985 5.09 18.02 5.155 17.955C5.22 17.905 5.205 17.79 5.12 17.695C5.04 17.615 4.925 17.58 4.86 17.645ZM4.32 17.24C4.285 17.305 4.335 17.385 4.435 17.435C4.515 17.485 4.615 17.47 4.65 17.4C4.685 17.335 4.635 17.255 4.535 17.205C4.435 17.175 4.355 17.19 4.32 17.24ZM5.94 19.02C5.86 19.085 5.89 19.235 6.005 19.33C6.12 19.445 6.265 19.46 6.33 19.38C6.395 19.315 6.365 19.165 6.265 19.07C6.155 18.955 6.005 18.94 5.94 19.02ZM5.37 18.285C5.29 18.335 5.29 18.465 5.37 18.58C5.45 18.695 5.585 18.745 5.65 18.695C5.73 18.63 5.73 18.5 5.65 18.385C5.58 18.27 5.45 18.22 5.37 18.285Z" fill="#777777"/>
</g>
<defs>
<clipPath id="clip0">
<rect width="24.8" height="25.6" fill="white"/>
</clipPath>
</defs>
</svg>
