<svg width="71" height="50" viewBox="0 0 71 50" fill="none" xmlns="http://www.w3.org/2000/svg">
<path d="M28.2924 25.5518C28.9858 26.1621 30.1095 26.1621 30.8029 25.5518L32.0576 24.4473C32.751 23.8369 32.751 22.8477 32.0576 22.2373L28.0949 18.75L32.0565 15.2617C32.7499 14.6514 32.7499 13.6621 32.0565 13.0518L30.8018 11.9473C30.1084 11.3369 28.9846 11.3369 28.2913 11.9473L21.8192 17.6445C21.1258 18.2549 21.1258 19.2441 21.8192 19.8545L28.2924 25.5518ZM38.9435 24.4482L40.1982 25.5527C40.8916 26.1631 42.0154 26.1631 42.7087 25.5527L49.1808 19.8555C49.8742 19.2451 49.8742 18.2559 49.1808 17.6455L42.7087 11.9482C42.0154 11.3379 40.8916 11.3379 40.1982 11.9482L38.9435 13.0527C38.2501 13.6631 38.2501 14.6523 38.9435 15.2627L42.9051 18.75L38.9435 22.2383C38.2501 22.8486 38.2501 23.8379 38.9435 24.4482ZM69.225 40.625H42.3271C42.245 42.5596 40.6952 43.75 38.695 43.75H31.95C29.8766 43.75 28.2868 42.0439 28.3146 40.625H1.775C0.79875 40.625 0 41.3281 0 42.1875V43.75C0 47.1875 3.195 50 7.1 50H63.9C67.805 50 71 47.1875 71 43.75V42.1875C71 41.3281 70.2012 40.625 69.225 40.625ZM63.9 4.6875C63.9 2.10938 61.5037 0 58.575 0H12.425C9.49625 0 7.1 2.10938 7.1 4.6875V37.5H63.9V4.6875ZM56.8 31.25H14.2V6.25H56.8V31.25Z" fill="#3CECB4"/>
</svg>
