<svg width="25" height="26" viewBox="0 0 25 26" fill="none" xmlns="http://www.w3.org/2000/svg">
<g clip-path="url(#clip0)">
<path d="M23.0286 1.6001H1.76589C0.791607 1.6001 0 2.3251 0 3.2151V22.3851C0 23.2751 0.791607 24.0001 1.76589 24.0001H23.0286C24.0029 24.0001 24.8 23.2751 24.8 22.3851V3.2151C24.8 2.3251 24.0029 1.6001 23.0286 1.6001ZM7.49536 20.8001H3.81964V10.1101H7.50089V20.8001H7.49536ZM5.6575 8.6501C4.47839 8.6501 3.52625 7.7851 3.52625 6.7251C3.52625 5.6651 4.47839 4.8001 5.6575 4.8001C6.83107 4.8001 7.78875 5.6651 7.78875 6.7251C7.78875 7.7901 6.83661 8.6501 5.6575 8.6501ZM21.2737 20.8001H17.598V15.6001C17.598 14.3601 17.5704 12.7651 15.6882 12.7651C13.7729 12.7651 13.4795 14.1151 13.4795 15.5101V20.8001H9.80375V10.1101H13.33V11.5701H13.3798C13.8725 10.7301 15.0737 9.8451 16.8618 9.8451C20.5818 9.8451 21.2737 12.0601 21.2737 14.9401V20.8001Z" fill="#777777"/>
</g>
<defs>
<clipPath id="clip0">
<rect width="24.8" height="25.6" fill="white"/>
</clipPath>
</defs>
</svg>
