<svg width="15" height="17" viewBox="0 0 15 17" fill="none" xmlns="http://www.w3.org/2000/svg">
<g clip-path="url(#clip0)">
<path d="M9.56823 6.15509C11.3186 8.14093 11.2946 11.3247 9.57878 13.2801C9.57555 13.2841 9.57175 13.2884 9.56823 13.2924L7.59948 15.5237C5.86306 17.4916 3.03799 17.4914 1.30183 15.5237C-0.434594 13.5561 -0.434594 10.354 1.30183 8.38634L2.38892 7.1543C2.6772 6.82759 3.17367 7.04473 3.18855 7.50646C3.20753 8.09488 3.30064 8.68606 3.47243 9.25696C3.53062 9.45027 3.48905 9.66409 3.3616 9.80853L2.9782 10.2431C2.15712 11.1736 2.13137 12.6888 2.94436 13.6284C3.76537 14.5774 5.11485 14.583 5.94216 13.6454L7.91091 11.4145C8.73682 10.4784 8.73336 8.9655 7.91091 8.03339C7.80248 7.91074 7.69326 7.81544 7.60795 7.74887C7.5476 7.7019 7.49776 7.6396 7.46243 7.56692C7.42709 7.49425 7.40723 7.41323 7.40442 7.33031C7.39282 6.97946 7.50251 6.61791 7.74714 6.34066L8.36395 5.64157C8.5257 5.45826 8.77944 5.43574 8.967 5.5841C9.1818 5.75408 9.38298 5.94515 9.56823 6.15509ZM13.6972 1.47537C11.961 -0.49231 9.13596 -0.492575 7.39953 1.47537L5.43078 3.70662C5.42727 3.71061 5.42346 3.71492 5.42024 3.71891C3.70444 5.67431 3.68038 8.85812 5.43078 10.844C5.61602 11.0539 5.8172 11.245 6.03198 11.4149C6.21954 11.5633 6.47331 11.5407 6.63503 11.3575L7.25185 10.6584C7.49648 10.3811 7.60616 10.0196 7.59456 9.66871C7.59176 9.5858 7.57189 9.50477 7.53656 9.4321C7.50122 9.35943 7.45139 9.29712 7.39104 9.25015C7.30572 9.18358 7.1965 9.08829 7.08808 8.96563C6.26563 8.03352 6.26217 6.52059 7.08808 5.58456L9.05682 3.35364C9.88414 2.41602 11.2336 2.42166 12.0546 3.37057C12.8676 4.31022 12.8419 5.82542 12.0208 6.75597L11.6374 7.1905C11.5099 7.33493 11.4684 7.54876 11.5265 7.74207C11.6983 8.31296 11.7915 8.90414 11.8104 9.49257C11.8253 9.95429 12.3218 10.1714 12.6101 9.84472L13.6972 8.61268C15.4336 6.6451 15.4336 3.44299 13.6972 1.47537Z" fill="#777777"/>
</g>
<defs>
<clipPath id="clip0">
<rect width="15" height="17" fill="white"/>
</clipPath>
</defs>
</svg>
