<svg width="57" height="65" viewBox="0 0 57 65" fill="none" xmlns="http://www.w3.org/2000/svg">
<path d="M50.8929 0H6.10714C2.73549 0 0 2.72949 0 6.09375V58.9062C0 62.2705 2.73549 65 6.10714 65H50.8929C54.2645 65 57 62.2705 57 58.9062V6.09375C57 2.72949 54.2645 0 50.8929 0ZM28.5 60.9375C26.248 60.9375 24.4286 59.1221 24.4286 56.875C24.4286 54.6279 26.248 52.8125 28.5 52.8125C30.752 52.8125 32.5714 54.6279 32.5714 56.875C32.5714 59.1221 30.752 60.9375 28.5 60.9375ZM50.8929 47.2266C50.8929 48.0645 50.2058 48.75 49.3661 48.75H7.63393C6.7942 48.75 6.10714 48.0645 6.10714 47.2266V7.61719C6.10714 6.7793 6.7942 6.09375 7.63393 6.09375H49.3661C50.2058 6.09375 50.8929 6.7793 50.8929 7.61719V47.2266Z" fill="#3CECB4"/>
</svg>
