<svg width="71" height="60" viewBox="0 0 71 60" fill="none" xmlns="http://www.w3.org/2000/svg">
<g clip-path="url(#clip0)">
<path d="M33.8637 40.6402C34.1965 39.1988 32.1996 37.1246 29.3707 34.9332C26.4725 32.6832 22.6867 30.3512 20.5789 29.4723C17.5697 28.066 14.7963 29.2613 14.1584 32.1324C13.465 35.2027 14.1584 38.1559 16.1691 40.7926C17.5836 42.609 19.6914 43.4527 22.1875 43.6051C23.7961 43.6754 29.4678 43.8629 30.7436 43.4879C32.3937 42.984 33.5309 42.1051 33.8637 40.6402ZM62.2914 43.0777C62.2005 43.0139 62.0925 42.9699 61.9768 42.9494C61.8611 42.929 61.7413 42.9328 61.6277 42.9606C61.5142 42.9883 61.4104 43.0391 61.3255 43.1086C61.2405 43.178 61.177 43.264 61.1404 43.359C60.0311 46.3356 54.9418 56.5426 37.275 57.5973C16.5158 58.8277 48.4104 62.7066 57.4379 56.8473C60.5857 54.8082 64.0387 52.7457 63.9 46.8395C63.8445 45.6559 63.2205 43.7117 62.2914 43.0777ZM70.8891 28.734C70.8475 26.5191 69.6965 24.8199 67.2836 23.7887C66.8814 23.6363 66.5902 23.4723 66.4654 23.0387C65.6268 19.0659 63.7091 15.3116 60.8631 12.0711C60.7105 11.8953 60.3777 11.6961 60.558 11.4852C61.7367 10.1375 60.5164 9.37578 59.5873 8.62578C49.5752 0.445315 37.9129 -1.91836 24.6004 1.53477C19.0396 2.97617 14.3525 5.70664 10.4559 9.43321C9.90117 9.93711 9.52676 10.4996 10.0398 11.1324C10.4559 11.6012 10.2201 11.859 9.90117 12.2223C7.15547 15.4695 5.29727 19.0543 4.45137 22.9695C4.3543 23.4734 4.04922 23.6727 3.56387 23.8836C1.59473 24.7039 0.44375 26.0516 0.110937 27.868L0 30.9723V33.4215C0 37.0309 2.91211 39.3277 7.1832 39.1637C8.25098 39.1285 8.80566 38.6598 8.84727 37.816C9.12461 28.734 8.51445 26.6363 9.36035 23.0738C12.7717 8.48399 32.4908 0.586721 47.8834 7.66367C57.0496 11.9539 61.8061 18.6336 62.0695 27.5152C62.1805 30.8199 62.0695 34.1363 62.0695 37.4293C62.0695 38.2496 62.3746 38.8941 63.373 39.0934C66.715 39.6793 70.1957 37.6871 70.7504 34.7926C71.1525 32.7887 70.8891 30.7496 70.8891 28.734ZM48.757 44.1441C53.8186 44.4723 56.9803 40.8043 56.8555 37.0543C56.5643 31.7574 47.6754 35.1207 44.6801 36.1168C34.5293 39.4098 38.4398 42.5504 41.6016 43.2418L48.757 44.1441Z" fill="#3CECB4"/>
</g>
<defs>
<clipPath id="clip0">
<rect width="71" height="60" fill="white"/>
</clipPath>
</defs>
</svg>
