<svg width="25" height="26" viewBox="0 0 25 26" fill="none" xmlns="http://www.w3.org/2000/svg">
<g clip-path="url(#clip0)">
<path d="M22.2507 7.5858C22.2665 7.8132 22.2665 8.04065 22.2665 8.26805C22.2665 15.204 17.1523 23.1959 7.80507 23.1959C4.92537 23.1959 2.25026 22.335 0 20.8406C0.409152 20.8893 0.802513 20.9056 1.22741 20.9056C3.60351 20.9056 5.79085 20.0772 7.53755 18.664C5.30303 18.6152 3.43044 17.1046 2.78525 15.0254C3.1 15.0741 3.4147 15.1066 3.74519 15.1066C4.20152 15.1066 4.6579 15.0416 5.08274 14.9279C2.75382 14.4406 1.00706 12.3289 1.00706 9.7787V9.71375C1.68369 10.1036 2.47055 10.3472 3.3045 10.3797C1.93547 9.43755 1.03855 7.82945 1.03855 6.01015C1.03855 5.03555 1.29028 4.14215 1.73091 3.36245C4.23295 6.5462 7.99388 8.62535 12.2111 8.8528C12.1324 8.46295 12.0852 8.0569 12.0852 7.6508C12.0852 4.7594 14.3512 2.4041 17.1679 2.4041C18.6314 2.4041 19.9532 3.0376 20.8816 4.06095C22.0303 3.83355 23.1319 3.39495 24.1075 2.79395C23.7298 4.01225 22.9273 5.0356 21.873 5.6853C22.8959 5.57165 23.8872 5.2792 24.7999 4.87315C24.1076 5.9127 23.2421 6.83855 22.2507 7.5858Z" fill="#777777"/>
</g>
<defs>
<clipPath id="clip0">
<rect width="24.8" height="25.6" fill="white"/>
</clipPath>
</defs>
</svg>
