<svg width="25" height="26" viewBox="0 0 25 26" fill="none" xmlns="http://www.w3.org/2000/svg">
<g clip-path="url(#clip0)">
<path d="M23.6657 6.20415C23.3953 5.02165 22.5985 4.09035 21.5868 3.7743C19.7531 3.2 12.4 3.2 12.4 3.2C12.4 3.2 5.04697 3.2 3.21319 3.7743C2.20151 4.0904 1.40473 5.02165 1.13429 6.20415C0.642944 8.3475 0.642944 12.8194 0.642944 12.8194C0.642944 12.8194 0.642944 17.2913 1.13429 19.4346C1.40473 20.6171 2.20151 21.5096 3.21319 21.8257C5.04697 22.4 12.4 22.4 12.4 22.4C12.4 22.4 19.753 22.4 21.5868 21.8257C22.5985 21.5096 23.3953 20.6171 23.6657 19.4346C24.1571 17.2913 24.1571 12.8194 24.1571 12.8194C24.1571 12.8194 24.1571 8.3475 23.6657 6.20415ZM9.99513 16.8795V8.75925L16.1408 12.8195L9.99513 16.8795Z" fill="#777777"/>
</g>
<defs>
<clipPath id="clip0">
<rect width="24.8" height="25.6" fill="white"/>
</clipPath>
</defs>
</svg>
